<?xml version="1.0" encoding="UTF-8" standalone="no"?>
<svg
   xmlns:dc="http://purl.org/dc/elements/1.1/"
   xmlns:cc="http://creativecommons.org/ns#"
   xmlns:rdf="http://www.w3.org/1999/02/22-rdf-syntax-ns#"
   xmlns:svg="http://www.w3.org/2000/svg"
   xmlns="http://www.w3.org/2000/svg"
   xmlns:sodipodi="http://sodipodi.sourceforge.net/DTD/sodipodi-0.dtd"
   xmlns:inkscape="http://www.inkscape.org/namespaces/inkscape"
   width="81.595718"
   height="81.595718"
   viewBox="0 0 230.28125 230.28124"
   version="1.1"
   id="svg2"
   inkscape:version="0.48.2 r9819"
   sodipodi:docname="MUTCD_D9-11.svg"
   inkscape:export-filename="C:\Users\Robin\Desktop\diesel.png"
   inkscape:export-xdpi="110.2999"
   inkscape:export-ydpi="110.2999">
  <metadata
     id="metadata62">
    <rdf:RDF>
      <cc:Work
         rdf:about="">
        <dc:format>image/svg+xml</dc:format>
        <dc:type
           rdf:resource="http://purl.org/dc/dcmitype/StillImage" />
        <dc:title></dc:title>
      </cc:Work>
    </rdf:RDF>
  </metadata>
  <defs
     id="defs60" />
  <sodipodi:namedview
     pagecolor="#ffffff"
     bordercolor="#666666"
     borderopacity="1"
     objecttolerance="10"
     gridtolerance="10"
     guidetolerance="10"
     inkscape:pageopacity="1"
     inkscape:pageshadow="2"
     inkscape:window-width="1920"
     inkscape:window-height="1017"
     id="namedview58"
     showgrid="false"
     fit-margin-top="0"
     fit-margin-left="0"
     fit-margin-right="0"
     fit-margin-bottom="0"
     inkscape:zoom="3.8704158"
     inkscape:cx="30.16135"
     inkscape:cy="19.412365"
     inkscape:window-x="-8"
     inkscape:window-y="-8"
     inkscape:window-maximized="1"
     inkscape:current-layer="svg2"
     showguides="true"
     inkscape:guide-bbox="true" />
  <path
     style="fill:#000000;fill-opacity:1;fill-rule:evenodd;stroke:none"
     d="M 31.09375 8.71875 C 31.08875 8.71875 31.103749 8.75 31.09375 8.75 C 29.8125 8.75 28.75 9.7787499 28.75 11.0625 L 28.71875 11.0625 L 28.71875 68.375 L 15.0625 68.375 L 15.0625 72.90625 L 66.5625 72.90625 L 66.5625 68.375 L 54.03125 68.375 L 54.03125 37.09375 L 55.09375 37.09375 C 55.134998 41.25125 54.58375 60.050002 55.5625 63.625 C 56.185002 65.895002 58.342499 67.71875 60.65625 67.71875 C 63.404999 67.71875 65.6875 65.483748 65.6875 62.71875 C 65.6875 57.218747 61.40625 51.745 61.40625 44.5 C 61.40625 38.16 61.401254 30.9425 61.40625 22.90625 C 61.33875 21.62125 60.657502 20.37375 59.625 19.59375 L 54.0625 15.03125 L 54.03125 11.0625 C 54.017502 9.7887498 52.962499 8.71875 51.6875 8.71875 L 31.09375 8.71875 z M 33.65625 11.96875 L 49.03125 11.96875 C 49.861248 11.96875 50.5625 12.64 50.5625 13.46875 L 50.5625 25.21875 C 50.5625 26.04625 49.861248 26.71875 49.03125 26.71875 L 33.65625 26.71875 C 32.82875 26.71875 32.15625 26.04625 32.15625 25.21875 L 32.15625 13.46875 C 32.15625 12.64 32.82875 11.96875 33.65625 11.96875 z M 53.96875 18.5625 L 55.0625 19.375 L 55.0625 25.34375 L 58.71875 25.34375 C 58.772498 32.13375 58.852502 38.926252 58.90625 45.71875 C 58.918758 52.478753 62.792499 58.452501 62.90625 62.34375 C 62.94625 63.6375 61.85625 64.71875 60.5625 64.71875 C 59.900001 64.71875 58.99375 64.363749 58.4375 63.4375 C 56.8625 60.8225 57.745002 38.8925 57.71875 35.5 C 57.71875 34.448751 56.87375 33.595 55.84375 33.59375 L 53.96875 33.53125 L 53.96875 18.5625 z "
     transform="matrix(2.8222222,0,0,2.8222222,0,-5e-6)"
     id="path3156" />
</svg>
